<?xml version="1.0" standalone="no"?><!DOCTYPE svg PUBLIC "-//W3C//DTD SVG 1.1//EN" "http://www.w3.org/Graphics/SVG/1.1/DTD/svg11.dtd"><svg t="1618276803507" class="icon" viewBox="0 0 1024 1024" version="1.1" xmlns="http://www.w3.org/2000/svg" p-id="4154" width="128" height="128" xmlns:xlink="http://www.w3.org/1999/xlink"><defs><style type="text/css"></style></defs><path d="M953.6 505.6h-243.2l-32-153.6h147.2c19.2 0 32-12.8 32-32v-6.4c0-19.2-12.8-32-32-32h-160l-38.4-192c0-12.8-12.8-19.2-19.2-25.6h-6.4-166.4H416h-6.4l-6.4 6.4-6.4 6.4v6.4l-38.4 192h-166.4c-19.2 0-32 12.8-32 32v6.4c0 19.2 12.8 32 32 32h147.2l-32 153.6h-262.4c-19.2 0-32 12.8-32 32v6.4c0 19.2 12.8 32 32 32h249.6l-76.8 345.6v12.8c0 12.8 0 25.6 19.2 25.6h12.8c12.8 0 19.2-6.4 25.6-12.8l224-204.8 224 204.8c6.4 6.4 19.2 12.8 25.6 12.8 0 0 12.8 6.4 25.6-6.4 0 0 6.4-6.4 6.4-19.2v-12.8l-64-345.6h236.8c19.2 0 32-6.4 32-25.6v-12.8c0-12.8-12.8-25.6-32-25.6z m-499.2-377.6h108.8l32 147.2h-172.8l32-147.2z m-44.8 224h192l32 153.6h-256l32-153.6z m-102.4 473.6l44.8-217.6 96 89.6-140.8 128z m128-243.2h140.8l-70.4 64-70.4-64z m121.6 115.2l96-89.6 44.8 217.6-140.8-128z" p-id="4155" fill="#ffffff"></path></svg>